<svg width="45" height="45" viewBox="0 0 45 45" fill="none" xmlns="http://www.w3.org/2000/svg">
<circle cx="22.5" cy="22.5" r="22.5" fill="#E6F2FF"/>
<path d="M8.0061 30.8985C8.00618 30.809 7.93806 30.7198 7.84884 30.7267C7.20702 30.7776 6.9656 30.6182 7.00389 29.9284C7.02804 29.4943 7.00806 29.0572 7.00889 28.6223C7.00973 28.1397 7.16207 28.0023 7.69567 27.9993C7.86715 27.9978 8.00617 27.8603 8.00617 27.6888C8.00617 27.6557 8.00617 27.623 8.00617 27.5902C8.00617 26.5771 8.00617 25.564 8.00617 24.5509C8.00694 23.4719 8.57278 22.7964 9.67634 22.5796C9.85935 22.5436 10.0007 22.3894 10.0007 22.2029C10.0007 19.7979 9.9999 17.393 10.0007 14.9881C10.0007 13.7519 10.819 13.0006 12.166 13.0006C19.0321 12.9998 25.8982 12.9998 32.7642 13.0006C34.112 13.0006 34.9311 13.7519 34.9311 14.9866C34.932 17.3915 34.9311 19.7964 34.9311 22.2014C34.9311 22.3835 35.0613 22.5374 35.2407 22.5691C35.335 22.5857 35.4267 22.604 35.5163 22.6286C36.3471 22.8578 36.9157 23.5453 36.9232 24.3505C36.9332 25.4486 36.9257 26.5475 36.9265 27.6456C36.9265 27.8414 37.0852 27.9955 37.2809 27.9972C37.3282 27.9977 37.3751 27.9989 37.4218 28.0015C37.719 28.0182 37.913 28.1814 37.918 28.4516C37.9296 29.0572 37.9288 29.6635 37.918 30.2691C37.913 30.5393 37.7207 30.7055 37.4252 30.7229C37.1493 30.7393 36.9249 30.9485 36.925 31.2249C36.9252 31.6053 36.9254 31.979 36.9249 32.353C36.924 32.8592 36.7759 32.9973 36.2289 32.9981C35.8235 32.9988 35.4189 33.0011 35.0135 32.9973C34.6589 32.9935 34.5016 32.8774 34.4292 32.564C34.3035 32.0184 34.1769 31.472 34.0679 30.9233C34.0371 30.7685 33.9738 30.7062 33.8065 30.7252C33.7557 30.7313 33.7024 30.726 33.6508 30.726C26.1928 30.726 18.7349 30.7282 11.2761 30.7184C10.9739 30.7184 10.8657 30.7943 10.8215 31.0606C10.7366 31.5645 10.6126 32.0639 10.4985 32.5632C10.427 32.8767 10.268 32.9935 9.91416 32.9966C9.46713 33.0004 9.02094 33.0019 8.57391 32.9966C8.18931 32.992 8.00784 32.8228 8.00451 32.4669C8.00299 31.9506 8.00562 31.4343 8.0061 30.8985ZM11.4971 22.5315C11.7727 22.5315 11.996 22.308 11.9947 22.0324C11.9927 21.5807 11.9901 21.1382 11.9986 20.6957C12.0178 19.716 12.8727 18.9199 13.9441 18.9138C15.9694 18.9009 17.994 18.9025 20.0193 18.9131C20.9534 18.9184 21.77 19.5164 21.9057 20.361C22.0014 20.9553 21.9531 21.5684 21.9673 22.1725C21.9713 22.3649 22.1241 22.5208 22.3165 22.5208C22.3671 22.5208 22.4172 22.5208 22.4668 22.5208C22.7422 22.5208 22.9654 22.2976 22.9653 22.0222C22.9651 21.6359 22.9648 21.2578 22.9654 20.8794C22.9671 19.6659 23.792 18.9093 25.1173 18.9085C27.007 18.9078 28.8975 18.9078 30.7872 18.9085C32.1133 18.9093 32.9357 19.6644 32.9374 20.8809C32.938 21.2623 32.9377 21.6434 32.9376 22.0268C32.9374 22.3021 33.1606 22.5254 33.436 22.5254C33.5126 22.5254 33.5888 22.5254 33.6653 22.5254C33.8141 22.5254 33.9347 22.4048 33.9347 22.256C33.9347 19.823 33.9355 17.3907 33.9347 14.9577C33.9347 14.2641 33.5459 13.909 32.7859 13.909C25.9106 13.909 19.0362 13.909 12.161 13.909C11.3818 13.909 10.998 14.2603 10.998 14.9729C10.9972 17.3961 10.998 19.8192 10.998 22.2431C10.998 22.4024 11.1271 22.5315 11.2864 22.5315C11.3568 22.5315 11.4268 22.5315 11.4971 22.5315ZM32.9292 27.9886C34.5861 27.9886 35.9312 26.6455 35.9293 24.9886C35.9291 24.8153 35.9288 24.6421 35.9284 24.4689C35.9276 23.8178 35.5247 23.4535 34.8054 23.4535C26.5799 23.4528 18.3536 23.4528 10.1281 23.4535C9.40803 23.4535 9.00512 23.817 9.00429 24.4682C9.00262 25.5572 9.00346 26.6454 9.00429 27.7344C9.00429 27.8777 9.13247 27.9886 9.27579 27.9886C17.1626 27.9886 25.0331 27.9886 32.9292 27.9886ZM8.02032 29.3583C8.02032 29.5997 8.21605 29.7971 8.45746 29.7971C17.8121 29.7971 27.1419 29.7971 36.4636 29.7971C36.705 29.7971 36.9007 29.5908 36.9007 29.3494C36.9007 29.108 36.705 28.9228 36.4636 28.9228C27.1169 28.9228 17.7932 28.9228 8.45745 28.9228C8.21604 28.9228 8.02032 29.1168 8.02032 29.3583ZM19.0967 22.5345C20.1299 22.5345 20.9976 21.6965 20.9625 20.6638C20.9467 20.1994 20.5188 19.8245 20.0035 19.8222C17.989 19.8139 15.9753 19.8146 13.9607 19.8222C13.4821 19.8237 13.0409 20.1531 13.0142 20.5781C12.9476 21.6571 13.88 22.535 14.961 22.5348C16.3397 22.5346 17.7154 22.5345 19.0967 22.5345ZM30.0668 22.5345C31.1 22.5345 31.9677 21.6965 31.9326 20.6638C31.9168 20.1994 31.4889 19.8245 30.9736 19.8222C28.9591 19.8139 26.9454 19.8146 24.9308 19.8215C24.4522 19.823 24.011 20.1523 23.9843 20.5773C23.9177 21.6564 24.85 22.5345 25.9312 22.5345C27.3098 22.5345 28.6853 22.5345 30.0668 22.5345ZM9.78393 31.2085C9.83603 30.9698 9.63887 30.7442 9.39455 30.7442C9.18299 30.7442 9.02677 30.9157 9.02677 31.1273C9.02677 31.3387 9.02677 31.5464 9.02677 31.7506C9.02677 31.9249 9.17635 32.0662 9.35063 32.0662C9.49885 32.0662 9.6188 31.963 9.65054 31.8182C9.69541 31.6135 9.73957 31.4118 9.78393 31.2085ZM35.5945 32.0775C35.7676 32.0775 35.9068 31.9372 35.9068 31.764C35.9068 31.5488 35.9068 31.3379 35.9068 31.13C35.9068 30.9186 35.7333 30.7472 35.5219 30.7472C35.277 30.7472 35.0972 30.974 35.1502 31.2131C35.1963 31.4211 35.2417 31.6263 35.2872 31.8318C35.3189 31.9753 35.4474 32.0775 35.5945 32.0775Z" fill="#707070"/>
</svg>
