<svg width="35" height="30" viewBox="0 0 35 30" fill="none" xmlns="http://www.w3.org/2000/svg">
<path d="M25.3185 0C22.0911 0 19.2655 1.38783 17.5041 3.73369C15.7428 1.38783 12.9171 0 9.68979 0C7.12078 0.00289558 4.65783 1.02471 2.84127 2.84127C1.02471 4.65783 0.00289558 7.12078 0 9.68979C0 20.6299 16.221 29.4851 16.9118 29.8508C17.0939 29.9487 17.2974 30 17.5041 30C17.7109 30 17.9144 29.9487 18.0965 29.8508C18.7872 29.4851 35.0083 20.6299 35.0083 9.68979C35.0054 7.12078 33.9835 4.65783 32.167 2.84127C30.3504 1.02471 27.8875 0.00289558 25.3185 0ZM17.5041 27.3189C14.6503 25.656 2.50059 18.0808 2.50059 9.68979C2.50307 7.78385 3.2613 5.9567 4.609 4.609C5.9567 3.2613 7.78385 2.50307 9.68979 2.50059C12.7296 2.50059 15.2817 4.11972 16.3476 6.72033C16.4418 6.94965 16.602 7.14579 16.808 7.28382C17.0139 7.42186 17.2562 7.49556 17.5041 7.49556C17.752 7.49556 17.9944 7.42186 18.2003 7.28382C18.4062 7.14579 18.5665 6.94965 18.6606 6.72033C19.7265 4.11503 22.2787 2.50059 25.3185 2.50059C27.2244 2.50307 29.0516 3.2613 30.3993 4.609C31.747 5.9567 32.5052 7.78385 32.5077 9.68979C32.5077 18.0683 20.3548 25.6545 17.5041 27.3189Z" fill="black"/>
</svg>
